# 
# Generated by Sweet Home 3D - Mon Jun 14 08:54:39 BST 2021
# http://www.sweethome3d.com/
# 
mtllib test_dae.mtl
g ground_1
usemtl ground_1
v 197.75 0.0 199.81018
v 197.75 0.0 605.3102
v 795.25 0.0 605.3102
v 795.25 0.0 199.81018
vn 0.0 1.0 0.0
vn 0.0 0.0 0.0
f 1//1 2//1 3//1
f 1//1 3//1 4//1
g wall_1_2
usemtl wall_1_2
v 201.5 0.0 203.56018
v 201.5 0.0 601.5602
v 205.25 0.0 597.8102
v 205.25 0.0 207.31018
vn 0.0 -1.0 0.0
f 8//3 7//3 6//3
f 8//3 6//3 5//3
g wall_1_3
usemtl wall_1_2
f 5//3 6//3 2//3
f 5//3 2//3 1//3
g wall_1_4
usemtl wall_1_2
v 205.25 250.0 597.8102
v 201.5 250.0 601.5602
v 205.25 250.0 207.31018
v 201.5 250.0 203.56018
vn 0.70710677 0.0 0.70710677
vn 1.0 0.0 0.0
vn 0.70710677 0.0 -0.70710677
f 6//4 7//4 9//4 10//4
f 7//5 8//5 11//5 9//5
f 8//6 5//6 12//6 11//6
g wall_1_5
usemtl wall_1_2
v 197.75 250.0 605.3102
v 197.75 250.0 199.81018
vn -1.0 0.0 0.0
f 1//7 2//7 13//7 14//7
f 2//4 6//4 10//4 13//4
f 5//6 1//6 14//6 12//6
g wall_1_6
usemtl wall_1_2
f 12//1 10//1 9//1
f 12//1 9//1 11//1
g wall_1_7
usemtl wall_1_2
f 14//1 13//1 10//1
f 14//1 10//1 12//1
g wall_2_8
usemtl wall_1_2
v 401.5 0.0 601.5602
v 397.75 0.0 597.8102
f 16//3 15//3 6//3
f 16//3 6//3 7//3
g wall_2_9
usemtl wall_1_2
v 405.25 0.0 605.3102
f 15//3 17//3 2//3
f 15//3 2//3 6//3
g wall_2_10
usemtl wall_1_2
v 397.75 250.0 597.8102
v 401.5 250.0 601.5602
vn -0.70710677 0.0 -0.70710677
vn 0.0 0.0 -1.0
f 7//8 6//8 10//8 9//8
f 15//6 16//6 18//6 19//6
f 16//9 7//9 9//9 18//9
g wall_2_11
usemtl wall_1_2
v 405.25 250.0 605.3102
vn 0.0 0.0 1.0
f 6//8 2//8 13//8 10//8
f 2//10 17//10 20//10 13//10
f 17//6 15//6 19//6 20//6
g wall_2_12
usemtl wall_1_2
f 9//1 10//1 19//1
f 9//1 19//1 18//1
g wall_2_13
usemtl wall_1_2
f 10//1 13//1 20//1
f 10//1 20//1 19//1
g wall_3_14
usemtl wall_1_2
v 397.75 0.0 395.81018
v 401.5 0.0 399.56018
f 22//3 15//3 16//3
f 22//3 16//3 21//3
g wall_3_15
usemtl wall_1_2
v 405.25 0.0 403.31018
f 23//3 17//3 15//3
f 23//3 15//3 22//3
g wall_3_16
usemtl wall_1_2
v 397.75 250.0 395.81018
v 401.5 250.0 399.56018
vn -0.70710677 0.0 0.70710677
f 21//7 16//7 18//7 24//7
f 16//11 15//11 19//11 18//11
f 22//6 21//6 24//6 25//6
g wall_3_17
usemtl wall_1_2
v 405.25 250.0 403.31018
f 15//11 17//11 20//11 19//11
f 17//5 23//5 26//5 20//5
f 23//6 22//6 25//6 26//6
g wall_3_18
usemtl wall_1_2
f 24//1 18//1 19//1
f 24//1 19//1 25//1
g wall_3_19
usemtl wall_1_2
f 25//1 19//1 20//1
f 25//1 20//1 26//1
g wall_4_20
usemtl wall_1_2
v 601.5 0.0 399.56018
v 605.25 0.0 395.81018
f 28//3 27//3 22//3
f 28//3 22//3 21//3
g wall_4_21
usemtl wall_1_2
v 597.75 0.0 403.31018
f 27//3 29//3 23//3
f 27//3 23//3 22//3
g wall_4_22
usemtl wall_1_2
v 605.25 250.0 395.81018
v 601.5 250.0 399.56018
f 21//11 22//11 25//11 24//11
f 27//4 28//4 30//4 31//4
f 28//9 21//9 24//9 30//9
g wall_4_23
usemtl wall_1_2
v 597.75 250.0 403.31018
f 22//11 23//11 26//11 25//11
f 23//10 29//10 32//10 26//10
f 29//4 27//4 31//4 32//4
g wall_4_24
usemtl wall_1_2
f 24//1 25//1 31//1
f 24//1 31//1 30//1
g wall_4_25
usemtl wall_1_2
f 25//1 26//1 32//1
f 25//1 32//1 31//1
g wall_5_26
usemtl wall_1_2
v 601.5 0.0 203.56018
v 605.25 0.0 199.81018
f 34//3 33//3 5//3
f 34//3 5//3 1//3
g wall_5_27
usemtl wall_1_2
v 597.75 0.0 207.31018
f 33//3 35//3 8//3
f 33//3 8//3 5//3
g wall_5_28
usemtl wall_1_2
v 605.25 250.0 199.81018
v 601.5 250.0 203.56018
f 1//11 5//11 12//11 14//11
f 33//4 34//4 36//4 37//4
f 34//9 1//9 14//9 36//9
g wall_5_29
usemtl wall_1_2
v 597.75 250.0 207.31018
f 5//11 8//11 11//11 12//11
f 8//10 35//10 38//10 11//10
f 35//4 33//4 37//4 38//4
g wall_5_30
usemtl wall_1_2
f 14//1 12//1 37//1
f 14//1 37//1 36//1
g wall_5_31
usemtl wall_1_2
f 12//1 11//1 38//1
f 12//1 38//1 37//1
g wall_6_32
usemtl wall_1_2
v 601.5 0.0 299.56018
v 605.25 0.0 295.81018
f 40//3 39//3 33//3
f 40//3 33//3 34//3
g wall_6_33
usemtl wall_1_2
v 597.75 0.0 303.31018
f 39//3 41//3 35//3
f 39//3 35//3 33//3
g wall_6_34
usemtl wall_1_2
v 605.25 250.0 295.81018
v 601.5 250.0 299.56018
f 34//8 33//8 37//8 36//8
f 39//4 40//4 42//4 43//4
f 40//5 34//5 36//5 42//5
g wall_6_35
usemtl wall_1_2
v 597.75 250.0 303.31018
f 33//8 35//8 38//8 37//8
f 35//7 41//7 44//7 38//7
f 41//4 39//4 43//4 44//4
g wall_6_36
usemtl wall_1_2
f 36//1 37//1 43//1
f 36//1 43//1 42//1
g wall_6_37
usemtl wall_1_2
f 37//1 38//1 44//1
f 37//1 44//1 43//1
g wall_7_38
usemtl wall_1_2
v 791.5 0.0 299.56018
v 795.25 0.0 295.81018
f 46//3 45//3 39//3
f 46//3 39//3 40//3
g wall_7_39
usemtl wall_1_2
v 787.75 0.0 303.31018
f 45//3 47//3 41//3
f 45//3 41//3 39//3
g wall_7_40
usemtl wall_1_2
v 795.25 250.0 295.81018
v 791.5 250.0 299.56018
f 40//8 39//8 43//8 42//8
f 45//4 46//4 48//4 49//4
f 46//9 40//9 42//9 48//9
g wall_7_41
usemtl wall_1_2
v 787.75 250.0 303.31018
f 39//8 41//8 44//8 43//8
f 41//10 47//10 50//10 44//10
f 47//4 45//4 49//4 50//4
g wall_7_42
usemtl wall_1_2
f 42//1 43//1 49//1
f 42//1 49//1 48//1
g wall_7_43
usemtl wall_1_2
f 43//1 44//1 50//1
f 43//1 50//1 49//1
g wall_8_44
usemtl wall_1_2
v 791.5 0.0 601.5602
v 795.25 0.0 601.5602
f 52//3 51//3 45//3
f 52//3 45//3 46//3
g wall_8_45
usemtl wall_1_2
v 787.75 0.0 601.5602
f 51//3 53//3 47//3
f 51//3 47//3 45//3
g wall_8_46
usemtl wall_1_2
v 795.25 250.0 601.5602
v 791.5 250.0 601.5602
f 46//8 45//8 49//8 48//8
f 51//10 52//10 54//10 55//10
f 52//5 46//5 48//5 54//5
g wall_8_47
usemtl wall_1_2
v 787.75 250.0 601.5602
f 45//8 47//8 50//8 49//8
f 47//7 53//7 56//7 50//7
f 53//10 51//10 55//10 56//10
g wall_8_48
usemtl wall_1_2
f 48//1 49//1 55//1
f 48//1 55//1 54//1
g wall_8_49
usemtl wall_1_2
f 49//1 50//1 56//1
f 49//1 56//1 55//1
g wall_9_50
usemtl wall_1_2
v 601.5 0.0 601.5602
v 605.25 0.0 601.5602
f 58//3 57//3 27//3
f 58//3 27//3 28//3
g wall_9_51
usemtl wall_1_2
v 597.75 0.0 601.5602
f 57//3 59//3 29//3
f 57//3 29//3 27//3
g wall_9_52
usemtl wall_1_2
v 605.25 250.0 601.5602
v 601.5 250.0 601.5602
f 28//8 27//8 31//8 30//8
f 57//10 58//10 60//10 61//10
f 58//5 28//5 30//5 60//5
g wall_9_53
usemtl wall_1_2
v 597.75 250.0 601.5602
f 27//8 29//8 32//8 31//8
f 29//7 59//7 62//7 32//7
f 59//10 57//10 61//10 62//10
g wall_9_54
usemtl wall_1_2
f 30//1 31//1 61//1
f 30//1 61//1 60//1
g wall_9_55
usemtl wall_1_2
f 31//1 32//1 62//1
f 31//1 62//1 61//1
